<svg width="24" height="24" viewBox="0 0 24 24" fill="none" xmlns="http://www.w3.org/2000/svg">
<path d="M10.0999 18.3666C9.98793 18.3676 9.87691 18.3457 9.77371 18.3021C9.67052 18.2585 9.57735 18.1943 9.49994 18.1133L4.55994 13.04C4.29106 12.7605 4.14087 12.3878 4.14087 12C4.14087 11.6122 4.29106 11.2394 4.55994 10.96L9.49994 5.87996C9.57158 5.78445 9.6629 5.70544 9.76773 5.6483C9.87256 5.59115 9.98844 5.55719 10.1075 5.54873C10.2266 5.54026 10.3462 5.55749 10.458 5.59924C10.5699 5.64099 10.6714 5.70628 10.7559 5.79071C10.8403 5.87513 10.9056 5.97671 10.9473 6.08857C10.9891 6.20042 11.0063 6.31995 10.9978 6.43904C10.9894 6.55813 10.9554 6.67402 10.8983 6.77884C10.8411 6.88367 10.7621 6.975 10.6666 7.04663L6.09994 11.7666C6.03887 11.8289 6.00466 11.9127 6.00466 12C6.00466 12.0872 6.03887 12.171 6.09994 12.2333L10.6666 16.9533C10.7835 17.0693 10.8631 17.2176 10.8951 17.3792C10.9272 17.5407 10.9103 17.7082 10.8465 17.86C10.7827 18.0119 10.6751 18.1412 10.5373 18.2315C10.3996 18.3218 10.238 18.3688 10.0733 18.3666H10.0999Z" fill="#080C2B" fill-opacity="0.65"/>
<path d="M13.8999 18.3667C13.7375 18.3636 13.5796 18.3128 13.4459 18.2205C13.3122 18.1282 13.2087 17.9986 13.1482 17.8478C13.0878 17.697 13.0731 17.5318 13.106 17.3727C13.1389 17.2136 13.218 17.0678 13.3333 16.9533L17.9266 12.2333C17.9877 12.171 18.0219 12.0873 18.0219 12C18.0219 11.9128 17.9877 11.829 17.9266 11.7667L13.3333 7.04668C13.2567 6.96832 13.1962 6.87565 13.1555 6.77394C13.1147 6.67223 13.0943 6.56349 13.0956 6.45392C13.0968 6.34434 13.1196 6.23609 13.1627 6.13533C13.2058 6.03457 13.2683 5.94328 13.3466 5.86668C13.425 5.79007 13.5176 5.72965 13.6193 5.68887C13.7211 5.64808 13.8298 5.62772 13.9394 5.62896C14.0489 5.6302 14.1572 5.65301 14.258 5.69608C14.3587 5.73916 14.45 5.80166 14.5266 5.88001L19.4666 10.96C19.7355 11.2395 19.8857 11.6122 19.8857 12C19.8857 12.3878 19.7355 12.7606 19.4666 13.04L14.5266 18.1133C14.4462 18.1977 14.3487 18.2639 14.2406 18.3076C14.1325 18.3513 14.0164 18.3714 13.8999 18.3667Z" fill="#080C2B" fill-opacity="0.65"/>
</svg>
